<?xml version="1.0" encoding="UTF-8" standalone="no"?>
<!-- Created with Inkscape (http://www.inkscape.org/) -->

<svg
   xmlns:dc="http://purl.org/dc/elements/1.1/"
   xmlns:cc="http://creativecommons.org/ns#"
   xmlns:rdf="http://www.w3.org/1999/02/22-rdf-syntax-ns#"
   xmlns:svg="http://www.w3.org/2000/svg"
   xmlns="http://www.w3.org/2000/svg"
   xmlns:sodipodi="http://sodipodi.sourceforge.net/DTD/sodipodi-0.dtd"
   xmlns:inkscape="http://www.inkscape.org/namespaces/inkscape"
   id="svg2"
   version="1.1"
   inkscape:version="0.48.5 r10040"
   width="285.41625"
   height="115.625"
   xml:space="preserve"
   sodipodi:docname="logo_heiafr_short_color.pdf"><metadata
     id="metadata8"><rdf:RDF><cc:Work
         rdf:about=""><dc:format>image/svg+xml</dc:format><dc:type
           rdf:resource="http://purl.org/dc/dcmitype/StillImage" /><dc:title></dc:title></cc:Work></rdf:RDF></metadata><defs
     id="defs6"><clipPath
       clipPathUnits="userSpaceOnUse"
       id="clipPath36"><path
         d="m 0,92.5 228.333,0 0,-92.5 L 0,0 0,92.5 z"
         id="path38" /></clipPath></defs><sodipodi:namedview
     pagecolor="#ffffff"
     bordercolor="#666666"
     borderopacity="1"
     objecttolerance="10"
     gridtolerance="10"
     guidetolerance="10"
     inkscape:pageopacity="0"
     inkscape:pageshadow="2"
     inkscape:window-width="640"
     inkscape:window-height="480"
     id="namedview4"
     showgrid="false"
     inkscape:zoom="1.7583693"
     inkscape:cx="142.70813"
     inkscape:cy="57.8125"
     inkscape:window-x="0"
     inkscape:window-y="0"
     inkscape:window-maximized="0"
     inkscape:current-layer="g10" /><g
     id="g10"
     inkscape:groupmode="layer"
     inkscape:label="logo_heiafr_short_color"
     transform="matrix(1.25,0,0,-1.25,0,115.625)"><g
       id="g12"
       transform="translate(120.6763,49.7462)"><path
         d="m 0,0 0,9.33 -8.669,0 0,-9.33 -3.24,0 0,21.359 3.24,0 0,-9.12 8.669,0 0,9.12 3.24,0 L 3.24,0 0,0 z"
         style="fill:#0979b8;fill-opacity:1;fill-rule:nonzero;stroke:none"
         id="path14" /></g><g
       id="g16"
       transform="translate(129.4971,49.7462)"><path
         d="m 0,0 0,21.359 13.649,0 0,-2.91 -10.409,0 0,-6.239 8.879,0 0,-2.88 -8.879,0 0,-6.42 10.409,0 0,-2.91 L 0,0 z"
         style="fill:#0979b8;fill-opacity:1;fill-rule:nonzero;stroke:none"
         id="path18" /></g><path
       d="m 147.587,71.106 3.24,0 0,-21.359 -3.24,0 0,21.359 z"
       style="fill:#0979b8;fill-opacity:1;fill-rule:nonzero;stroke:none"
       id="path20" /><g
       id="g22"
       transform="translate(163.0664,66.2755)"><path
         d="m 0,0 -3.33,-9.479 6.57,0 L 0,0 z m 5.609,-16.529 -1.469,4.29 -8.43,0 -1.47,-4.29 -3.45,0 7.83,21.359 2.609,0 7.831,-21.359 -3.451,0 z"
         style="fill:#0979b8;fill-opacity:1;fill-rule:nonzero;stroke:none"
         id="path24" /></g><path
       d="m 174.376,59.496 8.76,0 0,-2.851 -8.76,0 0,2.851 z"
       style="fill:#0979b8;fill-opacity:1;fill-rule:nonzero;stroke:none"
       id="path26" /><g
       id="g28"
       transform="translate(191.1455,68.1955)"><path
         d="m 0,0 0,-6.51 8.88,0 0,-2.91 -8.88,0 0,-9.029 -3.239,0 0,21.359 13.649,0 L 10.41,0 0,0 z"
         style="fill:#0979b8;fill-opacity:1;fill-rule:nonzero;stroke:none"
         id="path30" /></g><g
       id="g32"><g
         id="g34"
         clip-path="url(#clipPath36)"><g
           id="g40"
           transform="translate(213.4951,68.1955)"><path
             d="m 0,0 -4.8,0 0,-6.689 4.8,0 c 2.16,0 3.63,1.229 3.63,3.33 C 3.63,-1.26 2.16,0 0,0 m 3.75,-18.449 -4.5,9 -4.05,0 0,-9 -3.239,0 0,21.359 8.279,0 C 4.29,2.91 6.87,0.3 6.87,-3.33 6.87,-6.39 5.01,-8.34 2.61,-9 l 4.92,-9.449 -3.78,0 z"
             style="fill:#0979b8;fill-opacity:1;fill-rule:nonzero;stroke:none"
             id="path42" /></g><g
           id="g44"
           transform="translate(120.6763,21.4962)"><path
             d="m 0,0 0,9.33 -8.669,0 0,-9.33 -3.24,0 0,21.359 3.24,0 0,-9.12 8.669,0 0,9.12 3.24,0 L 3.24,0 0,0 z"
             style="fill:#aa9f93;fill-opacity:1;fill-rule:nonzero;stroke:none"
             id="path46" /></g><g
           id="g48"
           transform="translate(139.7266,39.9455)"><path
             d="m 0,0 0,-18.449 -3.24,0 0,18.449 -5.88,0 0,2.91 15,0 L 5.88,0 0,0 z"
             style="fill:#aa9f93;fill-opacity:1;fill-rule:nonzero;stroke:none"
             id="path50" /></g><g
           id="g52"
           transform="translate(157.6948,38.0255)"><path
             d="m 0,0 -3.33,-9.479 6.57,0 L 0,0 z m 5.61,-16.529 -1.47,4.29 -8.43,0 -1.47,-4.29 -3.449,0 7.829,21.359 2.61,0 7.829,-21.359 -3.449,0 z"
             style="fill:#aa9f93;fill-opacity:1;fill-rule:nonzero;stroke:none"
             id="path54" /></g><path
           d="m 174.375,31.246 8.76,0 0,-2.851 -8.76,0 0,2.851 z"
           style="fill:#aa9f93;fill-opacity:1;fill-rule:nonzero;stroke:none"
           id="path56" /><g
           id="g58"
           transform="translate(191.1738,39.9455)"><path
             d="m 0,0 0,-6.51 8.88,0 0,-2.91 -8.88,0 0,-9.029 -3.239,0 0,21.359 13.649,0 L 10.41,0 0,0 z"
             style="fill:#aa9f93;fill-opacity:1;fill-rule:nonzero;stroke:none"
             id="path60" /></g><g
           id="g62"
           transform="translate(213.5234,39.9455)"><path
             d="m 0,0 -4.8,0 0,-6.689 4.8,0 c 2.16,0 3.63,1.229 3.63,3.33 C 3.63,-1.26 2.16,0 0,0 m 3.75,-18.449 -4.499,9 -4.051,0 0,-9 -3.239,0 0,21.359 8.279,0 C 4.29,2.91 6.87,0.3 6.87,-3.33 6.87,-6.39 5.011,-8.34 2.61,-9 l 4.92,-9.449 -3.78,0 z"
             style="fill:#aa9f93;fill-opacity:1;fill-rule:nonzero;stroke:none"
             id="path64" /></g><g
           id="g66"
           transform="translate(59.3152,78.33)"><path
             d="M 0,0 0,2.367 C -18.475,0.771 -33.078,-14.546 -33.545,-33.318 l 2.362,0 c 0.233,8.839 3.774,17.117 10.051,23.394 C -15.393,-4.185 -7.982,-0.729 0,0"
             style="fill:#aa9f93;fill-opacity:1;fill-rule:nonzero;stroke:none"
             id="path68" /></g><g
           id="g70"
           transform="translate(88.4943,70.0774)"><path
             d="m 0,0 c -6.278,6.278 -14.429,9.994 -23.191,10.651 l 0,-2.37 c 8.13,-0.651 15.688,-4.121 21.519,-9.952 6.497,-6.496 10.074,-15.133 10.074,-24.32 0,-18.964 -15.429,-34.393 -34.393,-34.393 -9.157,0 -17.765,3.556 -24.254,10.011 l -3.244,0 c 0.486,-0.547 0.985,-1.087 1.507,-1.608 6.942,-6.943 16.173,-10.766 25.991,-10.766 9.818,0 19.048,3.823 25.991,10.766 6.942,6.942 10.765,16.173 10.765,25.99 C 10.765,-16.173 6.942,-6.943 0,0"
             style="fill:#aa9f93;fill-opacity:1;fill-rule:nonzero;stroke:none"
             id="path72" /></g><g
           id="g74"
           transform="translate(85.1275,24.162)"><path
             d="m 0,0 -4.071,0 2.315,9.3 -5.373,-0.619 0,16.903 -2.573,0 0,-25.584 -28.036,0 0,2.966 -28.703,-1.836 0,-0.981 1.71,-0.149 -13.581,0 -0.118,0 0,-0.117 0,-2.412 0,-0.117 0.118,0 78.312,0 0.118,0 0,0.117 0,2.412 L 0.118,0 0,0 z"
             style="fill:#0979b8;fill-opacity:1;fill-rule:evenodd;stroke:none"
             id="path76" /></g><g
           id="g78"
           transform="translate(47.5975,49.7459)"><path
             d="m 0,0 -1.213,0 -6.345,0 -25.773,-18.869 4.469,0 L 0,0 z"
             style="fill:#0979b8;fill-opacity:1;fill-rule:evenodd;stroke:none"
             id="path80" /></g><g
           id="g82"
           transform="translate(50.1043,58.9381)"><path
             d="m 0,0 0.521,0 0,0.431 c 0.009,0.011 0.018,0.022 0.033,0.037 0.844,0.844 5.029,2.034 11.687,2.034 6.658,0 10.843,-1.19 11.688,-2.034 0.015,-0.015 0.025,-0.026 0.033,-0.037 l 0,-0.431 0.52,0 1.144,0 0.52,0 0,0.52 c 0,0.543 -0.226,1.045 -0.673,1.492 C 24.57,2.914 22.564,3.64 19.859,4.106 19.194,4.643 17.507,4.99 15.564,5.169 l 0.235,0 0.52,0 0,0.519 c 0,0.411 -0.187,0.809 -0.529,1.118 -0.601,0.547 -1.614,0.779 -2.436,0.877 l 0,18.03 0,0.519 -0.52,0 -1.259,0 -0.52,0 0,-0.519 0,-18.026 C 9.474,7.506 8.089,6.917 8.089,5.688 l 0,-0.519 0.52,0 0.286,0 C 7.229,5.018 5.447,4.715 4.661,4.105 1.398,3.565 -1.663,2.525 -1.663,0.52 L -1.663,0 -1.144,0 0,0 z"
             style="fill:#0979b8;fill-opacity:1;fill-rule:evenodd;stroke:none"
             id="path84" /></g><g
           id="g86"
           transform="translate(47.3892,46.266)"><path
             d="m 0,0 -28.703,-16.547 0,-1.018 L 0,-5.35 0,0 z"
             style="fill:#0979b8;fill-opacity:1;fill-rule:evenodd;stroke:none"
             id="path88" /></g><g
           id="g90"
           transform="translate(47.3892,39.3911)"><path
             d="m 0,0 -28.703,-11.358 0,-0.661 L 0,-4.564 0,0 z"
             style="fill:#0979b8;fill-opacity:1;fill-rule:evenodd;stroke:none"
             id="path92" /></g><g
           id="g94"
           transform="translate(18.6864,26.0336)"><path
             d="m 0,0 28.703,2.694 0,4.527 L 0,0.623 0,0 z"
             style="fill:#0979b8;fill-opacity:1;fill-rule:nonzero;stroke:none"
             id="path96" /></g><g
           id="g98"
           transform="translate(71.4486,57.5227)"><path
             d="m 0,0 c 0.001,0.015 0.005,0.03 0.005,0.045 0,1.075 -4.078,1.947 -9.109,1.947 -5.03,0 -9.109,-0.872 -9.109,-1.947 l 0,-3.196 c 2.589,0.905 7.787,0.965 9.092,0.965 1.309,0 6.542,-0.06 9.121,-0.975 L 0,0 z"
             style="fill:#0979b8;fill-opacity:1;fill-rule:nonzero;stroke:none"
             id="path100" /></g><g
           id="g102"
           transform="translate(71.4486,50.5252)"><path
             d="m 0,0 0,2.412 c -0.992,0.439 -4.053,1.04 -9.121,1.04 -5.02,0 -8.071,-0.59 -9.092,-1.028 l 0,-2.424 0,-1.154 c 2.456,0.759 7.278,0.835 9.073,0.835 1.811,0 6.705,-0.077 9.14,-0.855 L 0,0 z"
             style="fill:#0979b8;fill-opacity:1;fill-rule:evenodd;stroke:none"
             id="path104" /></g><g
           id="g106"
           transform="translate(71.4486,46.8732)"><path
             d="m 0,0 0,1.085 c -0.991,0.379 -4.032,0.89 -9.14,0.89 -5,0 -8.018,-0.489 -9.073,-0.866 l 0,-1.109 0,-2.494 c 2.325,0.614 6.803,0.697 9.054,0.697 2.285,0 6.866,-0.085 9.159,-0.725 L 0,0 z"
             style="fill:#0979b8;fill-opacity:1;fill-rule:evenodd;stroke:none"
             id="path108" /></g><g
           id="g110"
           transform="translate(71.4486,39.8312)"><path
             d="m 0,0 0,3.151 c -1.009,0.314 -4.072,0.737 -9.159,0.737 -4.924,0 -7.949,-0.396 -9.054,-0.706 l 0,-3.182 0,-0.433 c 2.177,0.464 6.304,0.55 9.036,0.55 2.789,0 7.042,-0.089 9.177,-0.581 L 0,0 z"
             style="fill:#0979b8;fill-opacity:1;fill-rule:evenodd;stroke:none"
             id="path112" /></g><g
           id="g114"
           transform="translate(71.4486,36.1793)"><path
             d="m 0,0 0,1.838 c -1.115,0.271 -4.434,0.573 -9.177,0.573 -4.561,0 -7.801,-0.28 -9.036,-0.542 l 0,-0.275 0,-1.594 0,-1.75 c 2.151,0.33 6.299,0.389 9.016,0.389 2.797,0 7.107,-0.063 9.197,-0.419 L 0,0 z"
             style="fill:#0979b8;fill-opacity:1;fill-rule:nonzero;stroke:none"
             id="path116" /></g><g
           id="g118"
           transform="translate(62.3446,28.9439)"><path
             d="M 0,0 C 3.42,0 6.217,-0.081 7.749,-0.185 7.918,-0.192 8.445,-0.22 8.817,-0.29 8.873,-0.3 8.918,-0.309 8.951,-0.319 9.01,-0.334 9.061,-0.35 9.102,-0.368 l 0,0.24 0.002,0 0,3.711 0,0.527 c -1.157,0.193 -4.47,0.407 -9.197,0.407 -4.493,0 -7.714,-0.194 -9.016,-0.379 l 0,-0.555 0,-3.832 0,-0.104 c 0.069,0.022 0.162,0.041 0.264,0.058 0.092,0.017 0.219,0.034 0.376,0.05 0.233,0.027 0.429,0.04 0.429,0.04 l 0,0 C -6.59,-0.092 -3.649,0 0,0"
             style="fill:#0979b8;fill-opacity:1;fill-rule:nonzero;stroke:none"
             id="path120" /></g></g></g></g></svg>